<?xml version="1.0" encoding="iso-8859-1"?>
<!-- Generator: Adobe Illustrator 19.0.0, SVG Export Plug-In . SVG Version: 6.00 Build 0)  -->
<svg version="1.1" id="Capa_1" xmlns="http://www.w3.org/2000/svg" xmlns:xlink="http://www.w3.org/1999/xlink" x="0px" y="0px"
	 viewBox="0 0 488.934 488.934" style="enable-background:new 0 0 488.934 488.934;" xml:space="preserve">
<g>
	<g>
		<g>
			<g>
				<path d="M245.017,488.8c-53-3.7-68.7-49.9-74.9-61.4c-56.1,22.4-85.3,4.2-100.9-13.5c-12.5-15.6-24.2-41.3-5.2-92.6
					c-57.7-30.3-63.5-55.1-63.5-77s11.7-52.5,62.4-74.9c-19.4-50-7.2-78.9,5.3-93.5c15.6-17.7,41.6-36,100.9-13.5
					c24.7-53.7,54.1-62.4,75.9-62.4s51.3,9.4,74.9,62.4c56.9-22.6,85.3-4.2,100.9,13.5c12.5,15.6,24.4,39.8,5.2,92.6
					c54.2,24.9,62.4,54.1,62.4,74.9c0,21.8-7.9,50-62.4,74.9c19.5,52.4,7.3,78-5.2,92.6c-34.6,41.4-80.8,18.1-100.9,13.5
					C295.717,478.2,266.817,490.4,245.017,488.8z M198.217,393.1c7.3,15.6,23.9,54,46.8,55.1c22.6,1.1,39.5-39.5,46.8-55.1
					c4.2-9.4,15.4-12.9,25-10.4c23.5,6,58.2,23,72.8,3.1c14.9-13.5-0.9-49.2-6.2-69.7c-2.5-9.5,1-20.8,10.4-25
					c37-19.2,55.2-28.6,55.1-46.8c0-20.5-12.4-21.5-55.1-46.8c-9.4-4.2-13.5-15.6-10.4-25c5.2-15.6,21.1-55.7,6.2-69.7
					c-15.6-18-57.2-2.1-72.8,3.1c-9.4,3.1-20.8-1-25-10.4c-25.8-56.8-38.6-52.9-46.8-54.1c-19.3-2.7-39.5,38.5-46.8,54.1
					c-4.2,9.4-15.6,13.5-25,10.4c-15.6-5.2-61-23.7-72.8-3.1c-14.2,11.2,2.1,54.1,7.3,69.7c3.1,9.4-1,20.8-10.4,25
					c-16.6,7.3-56.3,26.1-56.2,46.8c0.1,17.2,19.5,27.5,55.1,46.8c9.4,4.2,13.5,15.6,10.4,25c-5.2,15.6-20.4,56.7-7.3,69.7
					c13.8,19.5,57.1,1.8,72.8-3.1C184.317,378.9,192.617,381.7,198.217,393.1z"/>
			</g>
			<g>
				<path d="M245.017,381.7c-14.6,0-31.4-6.5-43.7-30.2c-24.8,10.2-44.7,0-55.1-12.5c-8.3-10.4-15.2-23.7-6.2-49.9
					c-21.6-10.1-30.2-29.1-30.2-43.7s8.2-33.2,30.2-43.7c-8.3-21.2-2.1-39.5,6.2-49.9c10.4-12.5,31-22.1,55.1-12.5
					c12-23.3,29.1-30.2,43.7-30.2c14.6,0,33.6,8.4,43.7,30.2c28.6-9.4,44.7,0,55.1,12.5c8.3,10.4,15.8,22.4,6.2,49.9
					c22.6,11.1,30.2,29.1,30.2,43.7s-6.1,31.3-30.2,43.7c7.6,25.6,2.1,39.5-6.2,49.9c-8.3,10.4-26.3,21.2-55.1,11.4
					C279.717,372.2,259.617,381.7,245.017,381.7z M210.717,306.8c7.3,0,14.6,4.2,18.7,11.4c3.1,7.3,8.3,14.6,12.5,21.8
					c2.1,3.1,4.2,3.1,6.2,0c5.2-6.2,9.4-13.5,12.5-21.8c4.2-9.4,15.6-13.5,25-10.4c8.3,3.1,15.6,5.2,23.9,6.2
					c4.2-0.1,4.2-3.1,4.2-4.2c-1-8.3-3.1-16.6-6.2-23.9c-3.1-9.4,1-20.8,10.4-25c7.3-3.1,14.6-8.3,21.8-12.5c3.3-2.2,2.1-5.2,0-6.2
					c-6.2-5.2-13.5-9.4-21.8-12.5c-9.4-4.2-13.5-15.6-10.4-25c3.1-8.3,5.2-15.6,6.2-23.9c0.2-3-2.1-4.2-4.2-4.2
					c-9.4,1-16.6,3.1-25,6.2c-9.4,3.1-20.8-1-25-10.4c-3.1-7.3-8.3-14.6-12.5-21.8c-2.1-3.1-4.2-3.1-6.2,0
					c-5.2,7.3-9.4,13.5-12.5,21.8c-4.2,9.4-15.6,13.5-25,10.4c-8.3-3.1-15.6-5.2-23.9-6.2c-2.1-0.1-4.4,1.3-4.2,4.2
					c1,8.3,3.1,16.6,6.2,23.9c3.1,9.4-1,20.8-10.4,25c-7.3,3.1-14.6,8.3-21.8,12.5c-2.9,2.1-2.7,5,0,6.2c7.3,5.2,13.5,9.4,21.8,12.5
					c9.4,4.2,13.5,15.6,10.4,25c-3.1,8.3-5.2,15.6-6.2,23.9c-0.2,3.2,2.1,4.2,4.2,4.2c9.4-1,16.6-3.1,25-6.2
					C206.517,306.8,208.617,306.8,210.717,306.8z"/>
			</g>
		</g>
	</g>
</g>
<g>
</g>
<g>
</g>
<g>
</g>
<g>
</g>
<g>
</g>
<g>
</g>
<g>
</g>
<g>
</g>
<g>
</g>
<g>
</g>
<g>
</g>
<g>
</g>
<g>
</g>
<g>
</g>
<g>
</g>
</svg>
